<svg width="459" height="372" viewBox="0 0 459 372" fill="none" xmlns="http://www.w3.org/2000/svg">
<path d="M292.173 299.673H166.827V368.62H292.173V299.673Z" fill="#3F3D56"/>
<path d="M430.495 304.855H28.5048C25.0705 304.855 21.7768 303.487 19.3483 301.051C16.9198 298.616 15.5555 295.313 15.5555 291.868V264.523H443.445V291.868C443.445 295.313 442.08 298.616 439.652 301.051C437.223 303.487 433.93 304.855 430.495 304.855Z" fill="#3F3D56"/>
<path d="M229.5 292.012C233.484 292.012 236.714 288.784 236.714 284.802C236.714 280.82 233.484 277.592 229.5 277.592C225.516 277.592 222.286 280.82 222.286 284.802C222.286 288.784 225.516 292.012 229.5 292.012Z" fill="white"/>
<path d="M160.541 352.397H298.459C300.2 352.397 301.869 353.096 303.1 354.338C304.331 355.581 305.023 357.267 305.023 359.024V368.62H153.977V359.024C153.977 358.154 154.147 357.292 154.476 356.488C154.806 355.684 155.29 354.954 155.899 354.338C156.509 353.723 157.233 353.235 158.029 352.902C158.825 352.569 159.679 352.397 160.541 352.397Z" fill="#3F3D56"/>
<path fill-rule="evenodd" clip-rule="evenodd" d="M430.495 3.37978H28.5048C25.0705 3.37978 21.7768 4.74695 19.3483 7.18053C16.9198 9.61411 15.5555 12.9148 15.5555 16.3564V264.523H443.445V16.3564C443.445 12.9148 442.08 9.61411 439.652 7.18053C437.223 4.74695 433.93 3.37978 430.495 3.37978ZM431.144 24.0671H27.6731V260.651H431.144V24.0671Z" fill="#3F3D56"/>
</svg>
