<svg width="240" height="376" viewBox="0 0 240 376" fill="none" xmlns="http://www.w3.org/2000/svg">
<path d="M119.754 352.491C180.641 352.491 230 348.794 230 344.234C230 339.673 180.641 335.976 119.754 335.976C58.8674 335.976 9.50879 339.673 9.50879 344.234C9.50879 348.794 58.8674 352.491 119.754 352.491Z" fill="#E6E6E6"/>
<path d="M200.025 100.064H198.245V51.4381C198.245 47.7422 197.515 44.0825 196.097 40.668C194.679 37.2535 192.6 34.1509 189.979 31.5376C187.358 28.9242 184.247 26.8512 180.823 25.4368C177.399 24.0225 173.729 23.2945 170.023 23.2946H66.7139C63.0077 23.2945 59.3377 24.0225 55.9137 25.4368C52.4896 26.8512 49.3784 28.9242 46.7577 31.5376C44.137 34.1509 42.0582 37.2535 40.6399 40.668C39.2216 44.0825 38.4916 47.7422 38.4916 51.4381V318.205C38.4916 321.901 39.2216 325.56 40.6399 328.975C42.0582 332.389 44.137 335.492 46.7577 338.105C49.3784 340.719 52.4896 342.792 55.9137 344.206C59.3377 345.62 63.0077 346.348 66.7139 346.348H170.023C173.729 346.348 177.399 345.62 180.823 344.206C184.247 342.792 187.358 340.719 189.979 338.105C192.6 335.492 194.679 332.389 196.097 328.975C197.515 325.56 198.245 321.901 198.245 318.205V134.677H200.025V100.064Z" fill="#3F3D56"/>
<path d="M171.012 33.1352H157.348C157.977 34.5909 158.217 36.1704 158.047 37.7344C157.877 39.2984 157.303 40.7989 156.375 42.1038C155.447 43.4087 154.193 44.478 152.725 45.2173C151.257 45.9566 149.619 46.3434 147.955 46.3435H87.9891C86.3254 46.3434 84.6873 45.9566 83.219 45.2173C81.7507 44.478 80.4974 43.4087 79.5694 42.1038C78.6414 40.7989 78.0672 39.2984 77.8975 37.7344C77.7277 36.1704 77.9676 34.5909 78.5959 33.1352H65.8343C63.03 33.1352 60.2532 33.6571 57.6624 34.6713C55.0715 35.6854 52.7175 37.1718 50.7345 39.0457C48.7516 40.9196 47.1786 43.1442 46.1055 45.5925C45.0323 48.0409 44.48 50.665 44.48 53.315V309.078C44.48 311.728 45.0323 314.352 46.1055 316.8C47.1786 319.249 48.7516 321.473 50.7345 323.347C52.7175 325.221 55.0715 326.707 57.6624 327.722C60.2532 328.736 63.03 329.258 65.8343 329.258H171.012C173.816 329.258 176.593 328.736 179.184 327.722C181.774 326.707 184.129 325.221 186.111 323.347C188.094 321.473 189.667 319.249 190.741 316.8C191.814 314.352 192.366 311.728 192.366 309.078V53.315C192.366 50.665 191.814 48.0409 190.741 45.5925C189.667 43.1442 188.094 40.9196 186.111 39.0457C184.129 37.1718 181.774 35.6854 179.184 34.6713C176.593 33.6571 173.816 33.1352 171.012 33.1352Z" fill="white"/>
</svg>
