<svg width="240" height="376" viewBox="0 0 240 376" fill="none" xmlns="http://www.w3.org/2000/svg">
<path d="M119.754 352.491C180.641 352.491 230 348.794 230 344.234C230 339.673 180.641 335.976 119.754 335.976C58.8674 335.976 9.50879 339.673 9.50879 344.234C9.50879 348.794 58.8674 352.491 119.754 352.491Z" fill="#E6E6E6"/>
<path fill-rule="evenodd" clip-rule="evenodd" d="M198.245 100.064H200.025V134.677H198.245V318.205C198.245 321.901 197.515 325.56 196.097 328.975C194.679 332.389 192.6 335.492 189.979 338.105C187.358 340.719 184.247 342.792 180.823 344.206C177.399 345.62 173.729 346.348 170.023 346.348H66.7139C63.0077 346.348 59.3377 345.62 55.9137 344.206C52.4896 342.792 49.3784 340.719 46.7577 338.105C44.137 335.492 42.0582 332.389 40.6399 328.975C39.2216 325.56 38.4916 321.901 38.4916 318.205V51.4381C38.4916 47.7422 39.2216 44.0825 40.6399 40.668C42.0582 37.2535 44.137 34.1509 46.7577 31.5376C49.3784 28.9242 52.4896 26.8512 55.9137 25.4368C59.3377 24.0225 63.0077 23.2945 66.7139 23.2946H170.023C173.729 23.2945 177.399 24.0225 180.823 25.4368C184.247 26.8512 187.358 28.9242 189.979 31.5376C192.6 34.1509 194.679 37.2535 196.097 40.668C197.515 44.0825 198.245 47.7422 198.245 51.4381V100.064ZM157.348 33.1352H171.012C173.816 33.1352 176.593 33.6571 179.184 34.6713C181.774 35.6854 184.129 37.1718 186.111 39.0457C188.094 40.9196 189.667 43.1442 190.741 45.5925C191.814 48.0409 192.366 50.665 192.366 53.315V309.078C192.366 311.728 191.814 314.352 190.741 316.8C189.667 319.249 188.094 321.473 186.111 323.347C184.129 325.221 181.774 326.707 179.184 327.722C176.593 328.736 173.816 329.258 171.012 329.258H65.8343C63.03 329.258 60.2532 328.736 57.6624 327.722C55.0715 326.707 52.7175 325.221 50.7345 323.347C48.7516 321.473 47.1786 319.249 46.1055 316.8C45.0323 314.352 44.48 311.728 44.48 309.078V53.315C44.48 50.665 45.0323 48.0409 46.1055 45.5925C47.1786 43.1442 48.7516 40.9196 50.7345 39.0457C52.7175 37.1718 55.0715 35.6854 57.6624 34.6713C60.2532 33.6571 63.03 33.1352 65.8343 33.1352H78.5959C77.9676 34.5909 77.7277 36.1704 77.8975 37.7344C78.0672 39.2984 78.6414 40.7989 79.5694 42.1038C80.4974 43.4087 81.7507 44.478 83.219 45.2173C84.6873 45.9566 86.3254 46.3434 87.9891 46.3435H147.955C149.619 46.3434 151.257 45.9566 152.725 45.2173C154.193 44.478 155.447 43.4087 156.375 42.1038C157.303 40.7989 157.877 39.2984 158.047 37.7344C158.217 36.1704 157.977 34.5909 157.348 33.1352Z" fill="#3F3D56"/>
</svg>
