<svg width="240" height="376" viewBox="0 0 240 376" fill="none" xmlns="http://www.w3.org/2000/svg">
<path d="M44.4863 364.287H195.936C203.058 364.287 208.832 358.517 208.832 351.399L208.832 22.9152C208.832 15.7971 203.058 10.0267 195.936 10.0267H44.4863C37.3636 10.0267 31.5895 15.7971 31.5895 22.9152L31.5895 351.399C31.5895 358.517 37.3636 364.287 44.4863 364.287Z" fill="#3F3D56"/>
<path d="M45.1621 320.404H194.86L194.86 54.3092H45.1621L45.1621 320.404Z" fill="white"/>
<path d="M137.975 27.9791C138.747 27.9791 139.372 27.3539 139.372 26.5828C139.372 25.8116 138.747 25.1865 137.975 25.1865C137.204 25.1865 136.578 25.8116 136.578 26.5828C136.578 27.3539 137.204 27.9791 137.975 27.9791Z" fill="white"/>
<path d="M101.531 27.979L130.907 27.979C131.173 27.979 131.388 27.7608 131.388 27.4917V25.6738C131.388 25.4047 131.173 25.1865 130.907 25.1865L101.531 25.1865C101.265 25.1865 101.05 25.4047 101.05 25.6738V27.4917C101.05 27.7608 101.265 27.979 101.531 27.979Z" fill="white"/>
<path d="M121.009 354.314C126.301 354.314 130.59 350.027 130.59 344.739C130.59 339.451 126.301 335.164 121.009 335.164C115.718 335.164 111.429 339.451 111.429 344.739C111.429 350.027 115.718 354.314 121.009 354.314Z" fill="white"/>
</svg>
