<svg width="502" height="376" viewBox="0 0 502 376" fill="none" xmlns="http://www.w3.org/2000/svg">
<path d="M239.41 300.367C366.742 300.367 469.965 296.993 469.965 292.832C469.965 288.67 366.742 285.296 239.41 285.296C112.078 285.296 8.85516 288.67 8.85516 292.832C8.85516 296.993 112.078 300.367 239.41 300.367Z" fill="#E6E6E6"/>
<path d="M432.846 48.6692H276.601V47.853C276.601 47.5383 276.539 47.2267 276.418 46.9359C276.297 46.6452 276.12 46.381 275.897 46.1585C275.674 45.9359 275.409 45.7594 275.118 45.639C274.826 45.5186 274.514 45.4566 274.198 45.4566H208.155C207.84 45.4566 207.527 45.5186 207.236 45.639C206.945 45.7594 206.68 45.9359 206.457 46.1585C206.234 46.381 206.057 46.6452 205.936 46.9359C205.815 47.2267 205.753 47.5383 205.753 47.853V48.6692H48.8637C47.4758 48.6692 46.1015 48.9419 44.8192 49.4718C43.537 50.0017 42.3719 50.7783 41.3905 51.7573C40.4091 52.7364 39.6305 53.8987 39.0994 55.1779C38.5683 56.4571 38.2949 57.8281 38.2949 59.2127V272.649C38.2949 274.033 38.5683 275.404 39.0994 276.683C39.6305 277.963 40.4091 279.125 41.3905 280.104C42.3719 281.083 43.537 281.86 44.8192 282.39C46.1015 282.919 47.4758 283.192 48.8637 283.192H432.846C435.649 283.192 438.337 282.081 440.319 280.104C442.301 278.127 443.415 275.445 443.415 272.649V59.2127C443.415 56.4164 442.301 53.7346 440.319 51.7573C438.337 49.78 435.649 48.6692 432.846 48.6692Z" fill="#3F3D56"/>
<path d="M57.2688 66.7446C56.9458 66.7483 56.6375 66.8796 56.4115 67.1097C56.1854 67.3398 56.06 67.6499 56.0628 67.9721V274.519C56.06 274.841 56.1854 275.152 56.4115 275.382C56.6375 275.612 56.9458 275.743 57.2688 275.747H424.441C424.764 275.743 425.072 275.612 425.298 275.382C425.524 275.152 425.649 274.841 425.647 274.519V67.9721C425.649 67.6499 425.524 67.3398 425.298 67.1097C425.072 66.8796 424.764 66.7483 424.441 66.7446H57.2688Z" fill="white"/>
<path d="M240.533 61.5198C242.667 61.5198 244.397 59.7938 244.397 57.6646C244.397 55.5355 242.667 53.8094 240.533 53.8094C238.398 53.8094 236.668 55.5355 236.668 57.6646C236.668 59.7938 238.398 61.5198 240.533 61.5198Z" fill="#F50057"/>
<path d="M450.452 268.807H413.68V265.019C413.68 264.811 413.445 264.642 413.155 264.642H400.547C400.257 264.642 400.022 264.811 400.022 265.019V268.807H392.143V265.019C392.143 264.811 391.907 264.642 391.617 264.642H379.01C378.72 264.642 378.485 264.811 378.485 265.019V268.807H370.605V265.019C370.605 264.811 370.37 264.642 370.08 264.642H357.473C357.182 264.642 356.947 264.811 356.947 265.019V268.807H349.068V265.019C349.068 264.811 348.832 264.642 348.542 264.642H335.935C335.645 264.642 335.41 264.811 335.41 265.019V268.807H327.53V265.019C327.53 264.811 327.295 264.642 327.005 264.642H314.398C314.107 264.642 313.872 264.811 313.872 265.019V268.807H305.993V265.019C305.993 264.811 305.757 264.642 305.467 264.642H292.86C292.57 264.642 292.335 264.811 292.335 265.019V268.807H284.455V265.019C284.455 264.811 284.22 264.642 283.93 264.642H185.172C184.882 264.642 184.647 264.811 184.647 265.019V268.807H176.768V265.019C176.768 264.811 176.532 264.642 176.242 264.642H163.635C163.345 264.642 163.11 264.811 163.11 265.019V268.807H155.23V265.019C155.23 264.811 154.995 264.642 154.705 264.642H142.097C141.807 264.642 141.572 264.811 141.572 265.019V268.807H133.693V265.019C133.693 264.811 133.457 264.642 133.167 264.642H120.56C120.27 264.642 120.035 264.811 120.035 265.019V268.807H112.155V265.019C112.155 264.811 111.92 264.642 111.63 264.642H99.0225C98.7324 264.642 98.4972 264.811 98.4972 265.019V268.807H90.6176V265.019C90.6176 264.811 90.3824 264.642 90.0923 264.642H77.485C77.1948 264.642 76.9597 264.811 76.9597 265.019V268.807H69.0801V265.019C69.0801 264.811 68.8449 264.642 68.5548 264.642H55.9475C55.6573 264.642 55.4222 264.811 55.4222 265.019V268.807H31.2581C24.2953 268.807 18.6508 272.855 18.6508 277.848V281.937C18.6508 286.93 24.2953 290.978 31.2581 290.978H450.452C457.414 290.978 463.059 286.93 463.059 281.937V277.848C463.059 272.855 457.414 268.807 450.452 268.807Z" fill="#3F3D56"/>
<path d="M382.261 107.263H248.097C246.681 107.263 245.533 108.408 245.533 109.821V238.549C245.533 239.961 246.681 241.106 248.097 241.106H382.261C383.677 241.106 384.825 239.961 384.825 238.549V109.821C384.825 108.408 383.677 107.263 382.261 107.263Z" fill="#E6E6E6"/>
<path d="M327.44 129.564H97.7236V216.64H327.44V129.564Z" fill="#F50057"/>
<path d="M125.944 140.626H110.683V155.851H125.944V140.626Z" fill="white"/>
<path d="M275.508 147.477H152.652V148.999H275.508V147.477Z" fill="white"/>
<path d="M125.944 165.747H110.683V180.972H125.944V165.747Z" fill="white"/>
<path d="M275.508 172.598H152.652V174.121H275.508V172.598Z" fill="white"/>
<path d="M125.944 190.868H110.683V206.093H125.944V190.868Z" fill="white"/>
<path d="M275.508 197.719H152.652V199.242H275.508V197.719Z" fill="white"/>
<path d="M387.246 320.401C445.652 320.401 493 316.855 493 312.48C493 308.106 445.652 304.559 387.246 304.559C328.839 304.559 281.491 308.106 281.491 312.48C281.491 316.855 328.839 320.401 387.246 320.401Z" fill="#E6E6E6"/>
<path d="M464.246 78.2576H462.539V31.6124C462.539 28.0671 461.839 24.5566 460.478 21.2811C459.118 18.0057 457.123 15.0296 454.609 12.5227C452.096 10.0158 449.111 8.02718 445.827 6.67046C442.542 5.31374 439.022 4.61545 435.466 4.61546H336.366C332.811 4.61545 329.29 5.31374 326.006 6.67046C322.721 8.02719 319.737 10.0158 317.223 12.5227C314.709 15.0296 312.715 18.0057 311.354 21.2811C309.994 24.5566 309.293 28.0671 309.293 31.6124V287.511C309.293 291.057 309.994 294.567 311.354 297.843C312.715 301.118 314.709 304.094 317.223 306.601C319.737 309.108 322.721 311.097 326.006 312.453C329.29 313.81 332.811 314.508 336.366 314.508H435.466C439.022 314.508 442.542 313.81 445.827 312.453C449.111 311.097 452.096 309.108 454.609 306.601C457.123 304.094 459.118 301.118 460.478 297.843C461.839 294.567 462.539 291.057 462.539 287.511V111.46H464.246V78.2576Z" fill="#3F3D56"/>
<path d="M436.559 11.6391H423.623C424.218 13.0936 424.445 14.6715 424.284 16.2341C424.123 17.7966 423.58 19.2957 422.701 20.5994C421.823 21.9031 420.636 22.9713 419.246 23.71C417.856 24.4486 416.305 24.835 414.73 24.8351H357.956C356.381 24.835 354.83 24.4486 353.44 23.71C352.05 22.9713 350.863 21.9031 349.985 20.5994C349.106 19.2957 348.563 17.7966 348.402 16.2341C348.241 14.6715 348.468 13.0935 349.063 11.6391H336.981C334.326 11.6391 331.697 12.1606 329.244 13.1738C326.791 14.187 324.562 15.672 322.685 17.5441C320.808 19.4163 319.319 21.6388 318.302 24.0848C317.286 26.5309 316.764 29.1525 316.764 31.8001V287.324C316.764 289.971 317.286 292.593 318.302 295.039C319.318 297.485 320.808 299.708 322.685 301.58C324.562 303.452 326.791 304.937 329.244 305.95C331.697 306.963 334.326 307.485 336.981 307.485H436.559C439.214 307.485 441.843 306.963 444.296 305.95C446.749 304.937 448.977 303.452 450.855 301.58C452.732 299.708 454.221 297.485 455.237 295.039C456.253 292.593 456.776 289.971 456.776 287.324V31.8002C456.776 29.1526 456.253 26.5309 455.237 24.0849C454.221 21.6388 452.732 19.4163 450.855 17.5442C448.977 15.672 446.749 14.187 444.296 13.1738C441.843 12.1606 439.214 11.6391 436.559 11.6391Z" fill="white"/>
<path d="M400.614 80.2832H365.318V83.5518H400.614V80.2832Z" fill="#F50057"/>
<path d="M426.836 91.5902H365.318V94.8588H426.836V91.5902Z" fill="#E6E6E6"/>
<path d="M426.775 102.897H365.318V106.166H426.775V102.897Z" fill="#E6E6E6"/>
<path d="M358.004 80.3317H331.782V106.48H358.004V80.3317Z" fill="#F50057"/>
<path d="M400.614 148.923H365.318V152.192H400.614V148.923Z" fill="#F50057"/>
<path d="M426.836 160.23H365.318V163.499H426.836V160.23Z" fill="#E6E6E6"/>
<path d="M426.775 171.537H365.318V174.806H426.775V171.537Z" fill="#E6E6E6"/>
<path d="M358.004 148.972H331.782V175.12H358.004V148.972Z" fill="#F50057"/>
<path d="M400.614 217.563H365.318V220.831H400.614V217.563Z" fill="#F50057"/>
<path d="M426.836 228.87H365.318V232.138H426.836V228.87Z" fill="#E6E6E6"/>
<path d="M426.775 240.177H365.318V243.445H426.775V240.177Z" fill="#E6E6E6"/>
<path d="M358.004 217.611H331.782V243.76H358.004V217.611Z" fill="#F50057"/>
<path d="M409.491 371.385C433.419 371.385 452.816 367.288 452.816 362.234C452.816 357.18 433.419 353.083 409.491 353.083C385.564 353.083 366.167 357.18 366.167 362.234C366.167 367.288 385.564 371.385 409.491 371.385Z" fill="#E6E6E6"/>
<path d="M400.288 130.944C400.288 130.944 405.022 148.569 409.044 149.741C413.067 150.912 387.588 154.569 387.588 154.569L387.026 138.775L400.288 130.944Z" fill="#A0616A"/>
<path d="M379.48 240.887L384.192 250.964L389.577 245.589L386.211 237.527L379.48 240.887Z" fill="#A0616A"/>
<path d="M438.043 234.84L436.697 244.246L432.658 241.558V231.481L438.043 234.84Z" fill="#A0616A"/>
<path d="M380.153 336.287L378.134 352.411L388.904 353.083L387.558 336.287H380.153Z" fill="#A0616A"/>
<path d="M439.39 336.287L441.409 352.411L430.639 353.083L431.985 336.287H439.39Z" fill="#A0616A"/>
<path d="M384.865 235.512C384.865 235.512 380.153 248.277 380.826 253.651C381.499 259.026 375.441 286.571 377.46 289.258C379.48 291.946 379.48 295.305 378.134 297.321C376.787 299.336 376.114 296.649 376.787 300.008C377.46 303.367 376.114 320.163 376.787 322.85C377.46 325.538 374.768 326.209 376.114 328.897C377.46 331.584 379.48 339.646 379.48 339.646L388.231 338.974L389.577 331.584C389.577 331.584 393.616 330.912 392.943 326.881C392.27 322.85 396.308 295.977 396.308 295.977L407.752 258.354L423.907 292.618C423.907 292.618 424.58 316.804 426.6 319.491C428.619 322.178 424.58 329.569 426.6 332.256C428.619 334.943 430.639 339.646 430.639 339.646H440.736V334.271C440.736 334.271 446.794 330.912 440.736 320.835L439.389 263.057L435.351 235.512H384.865Z" fill="#2F2E41"/>
<path d="M390.25 350.395C390.25 350.395 385.538 348.38 383.519 349.724C381.499 351.067 380.153 349.052 380.153 349.052C380.153 349.052 377.46 347.708 376.787 349.724C376.27 351.139 375.592 352.492 374.768 353.755C374.768 353.755 370.729 361.145 373.422 363.16C376.114 365.176 378.134 366.519 378.134 367.863C378.134 369.207 390.923 369.879 390.923 367.863C390.923 365.848 390.25 350.395 390.25 350.395Z" fill="#2F2E41"/>
<path d="M429.292 350.395C429.292 350.395 434.004 348.38 436.024 349.724C438.043 351.067 439.389 349.052 439.389 349.052C439.389 349.052 442.082 347.708 442.755 349.724C443.273 351.139 443.95 352.492 444.774 353.755C444.774 353.755 448.813 361.145 446.121 363.16C443.428 365.176 441.409 366.519 441.409 367.863C441.409 369.207 428.619 369.879 428.619 367.863C428.619 365.848 429.292 350.395 429.292 350.395Z" fill="#2F2E41"/>
<path d="M424.917 153.212C424.917 153.212 406.069 145.822 395.972 148.509C385.875 151.197 369.046 163.29 369.719 165.977C370.393 168.664 376.787 199.905 376.787 199.905C376.787 199.905 376.787 218.716 380.153 224.762C383.519 230.809 384.192 235.512 384.192 235.512L383.519 242.23C383.519 242.23 401.02 243.574 410.444 239.543C419.868 235.512 435.351 238.199 435.351 238.199C435.351 238.199 427.273 204.607 423.234 199.233C419.195 193.858 424.917 153.212 424.917 153.212Z" fill="#575A89"/>
<path d="M375.441 164.297L369.383 166.313C369.383 166.313 363.998 174.375 363.998 179.75C363.998 185.124 363.325 218.716 366.017 223.419C368.71 228.122 371.402 237.527 375.441 238.199L380.153 244.246L388.231 238.871L385.538 232.824L375.441 164.297Z" fill="#575A89"/>
<path d="M415.829 154.22L422.525 152.343L425.253 153.548C425.253 153.548 435.351 163.626 438.716 173.703C442.082 183.781 442.755 222.747 442.755 222.747C442.755 222.747 443.428 224.762 442.755 225.434C442.082 226.106 441.409 226.778 441.409 228.122C441.409 229.465 440.063 232.153 440.063 232.153L439.389 237.527L432.658 236.855C432.658 236.855 419.868 199.233 419.868 190.499C419.868 181.765 415.829 154.22 415.829 154.22Z" fill="#575A89"/>
<path d="M413.952 149.784C413.952 149.784 414.147 146.494 412.127 145.822C410.108 145.15 407.415 141.791 402.03 143.135C396.645 144.478 382.509 146.494 381.836 147.837C381.163 149.181 379.143 149.853 379.816 151.197C380.49 152.54 381.836 151.197 380.49 152.54C379.143 153.884 378.47 153.212 379.143 153.884C379.816 154.556 379.816 157.915 379.816 157.915C379.816 157.915 389.914 164.633 392.606 163.961C395.299 163.29 411.369 149.183 411.369 149.183L413.952 149.784Z" fill="#575A89"/>
<path opacity="0.2" d="M379.78 193.745L379.098 216.63L384.483 232.753L379.78 193.745Z" fill="black"/>
<path opacity="0.2" d="M426.237 183.746L432.328 205.82L430.921 222.758L426.237 183.746Z" fill="black"/>
<path d="M393.115 143.945C401.006 143.945 407.403 137.56 407.403 129.684C407.403 121.809 401.006 115.424 393.115 115.424C385.224 115.424 378.827 121.809 378.827 129.684C378.827 137.56 385.224 143.945 393.115 143.945Z" fill="#A0616A"/>
<path d="M380.956 128.701C381.964 131.272 382.972 133.843 383.981 136.413C385.22 139.574 386.64 142.955 389.545 144.719C393.132 146.897 397.922 145.835 401.392 143.476C407.586 139.265 410.736 131.044 408.937 123.783C407.138 116.522 400.512 110.713 393.065 109.869L392.922 112.45L389.748 109.795C388.903 111.492 386.234 111.869 384.951 110.472C385.785 112.197 384.823 114.301 383.433 115.622C381.726 117.245 376.843 119.196 377.046 122.098C377.181 124.034 380.169 126.694 380.956 128.701Z" fill="#2F2E41"/>
</svg>
