<svg width="292" height="372" viewBox="0 0 292 372" fill="none" xmlns="http://www.w3.org/2000/svg">
<path fill-rule="evenodd" clip-rule="evenodd" d="M38.4373 14.1389L254.538 14.1389C259.343 14.1389 263.239 18.453 263.239 23.7746L263.239 348.225C263.239 353.547 259.343 357.861 254.538 357.861H38.4373C33.6318 357.861 29.7362 353.547 29.7362 348.225L29.7362 23.7746C29.7362 18.4529 33.6318 14.1389 38.4373 14.1389ZM251.052 45.3421L251.052 323.733H41.9232L41.9232 45.3421L251.052 45.3421Z" fill="#3F3D56"/>
<path d="M145.269 33.6409C146.884 33.6409 148.194 32.0038 148.194 29.9843C148.194 27.9648 146.884 26.3277 145.269 26.3277C143.653 26.3277 142.344 27.9648 142.344 29.9843C142.344 32.0038 143.653 33.6409 145.269 33.6409Z" fill="white"/>
<path d="M145.269 349.085C150.384 349.085 154.531 345.047 154.531 340.066C154.531 335.084 150.384 331.046 145.269 331.046C140.154 331.046 136.007 335.084 136.007 340.066C136.007 345.047 140.154 349.085 145.269 349.085Z" fill="white"/>
</svg>
