<svg xmlns="http://www.w3.org/2000/svg" xmlns:xlink="http://www.w3.org/1999/xlink" width="24" height="24" viewBox="0 0 24 24">
  <defs>
    <path id="camera-a" d="M5.76389349,3 C6.31321405,3.61374936 7.11150019,4 8,4 C8.88849981,4 9.68678595,3.61374936 10.2361065,3 L16,3 L16,7 L0,7 L0,3 L5.76389349,3 Z M8,2 C7.44771525,2 7,1.55228475 7,1 C7,0.44771525 7.44771525,0 8,0 C8.55228475,0 9,0.44771525 9,1 C9,1.55228475 8.55228475,2 8,2 Z"/>
    <path id="camera-c" d="M2,4 L2,15 L18,15 L18,4 L14,4 L12,2 L8,2 L6,4 L2,4 Z M5.17157288,2 L6.58578644,0.585786438 C6.96085919,0.210713681 7.46956702,0 8,0 L12,0 C12.530433,0 13.0391408,0.210713681 13.4142136,0.585786438 L14.8284271,2 L18,2 C19.1045695,2 20,2.8954305 20,4 L20,15 C20,16.1045695 19.1045695,17 18,17 L2,17 C0.8954305,17 0,16.1045695 0,15 L0,4 C0,2.8954305 0.8954305,2 2,2 L5.17157288,2 Z M10,13 C12.209139,13 14,11.209139 14,9 C14,6.790861 12.209139,5 10,5 C7.790861,5 6,6.790861 6,9 C6,11.209139 7.790861,13 10,13 Z M10,11 C8.8954305,11 8,10.1045695 8,9 C8,7.8954305 8.8954305,7 10,7 C11.1045695,7 12,7.8954305 12,9 C12,10.1045695 11.1045695,11 10,11 Z"/>
  </defs>
  <g fill="none" fill-rule="evenodd" transform="translate(2 3)">
    <g transform="translate(2 8)">
      <mask id="camera-b" fill="#fff">
        <use xlink:href="#camera-a"/>
      </mask>
      <use fill="#D8D8D8" xlink:href="#camera-a"/>
      <g fill="#FFA0A0" mask="url(#camera-b)">
        <rect width="24" height="24" transform="translate(-4 -11)"/>
      </g>
    </g>
    <mask id="camera-d" fill="#fff">
      <use xlink:href="#camera-c"/>
    </mask>
    <use fill="#000" fill-rule="nonzero" xlink:href="#camera-c"/>
    <g fill="#7600FF" mask="url(#camera-d)">
      <rect width="24" height="24" transform="translate(-2 -3)"/>
    </g>
  </g>
</svg>
