<svg xmlns="http://www.w3.org/2000/svg" xmlns:xlink="http://www.w3.org/1999/xlink" width="24" height="24" viewBox="0 0 24 24">
  <defs>
    <path id="pie-a" d="M-2.77416978e-14,0.00784428709 C0.0908619179,0.00263856818 0.182411524,0 0.2745774,0 C2.87527338,0 4.98527584,2.10090869 5,4.69814128 L-1.77635684e-15,4.69814128 L-1.77635684e-15,0.00784428709 Z"/>
    <path id="pie-c" d="M14.8856023,0.0111186746 C15.0148544,0.00371348223 15.1445525,0 15.2745774,0 C18.9744935,0 21.9790016,2.98851946 21.9999679,6.68680311 C22.0062549,7.79578525 21.109,8.69814128 20,8.69814128 L15,8.69814128 C13.8954305,8.69814128 13,7.80271078 13,6.69814128 L13,2.00784429 C13,0.947713925 13.8272076,0.0717568996 14.8856023,0.0111186746 Z M15,2.00784429 L15,6.69814128 L20,6.69814128 C19.9852758,4.10090869 17.8752734,2 15.2745774,2 C15.1824115,2 15.0908619,2.00263857 15,2.00784429 Z M12,10 L16.9835977,10 C18.0371748,10 18.9100823,10.8173412 18.9792794,11.8686434 C18.993076,12.0782535 19,12.2887874 19,12.5 C19,17.7467051 14.7467051,22 9.5,22 C4.25329488,22 0,17.7467051 0,12.5 C0,7.25329488 4.25329488,3 9.5,3 C9.7112126,3 9.92174654,3.00692396 10.1313566,3.02072058 C11.1826588,3.08991773 12,3.9628252 12,5.01640228 L12,10 Z M10,5.01640228 C9.83473819,5.00552468 9.66801428,5 9.5,5 C5.35786438,5 2,8.35786438 2,12.5 C2,16.6421356 5.35786438,20 9.5,20 C13.6421356,20 17,16.6421356 17,12.5 C17,12.3319857 16.9944753,12.1652618 16.9835977,12 L10,12 L10,5.01640228 Z"/>
  </defs>
  <g fill="none" fill-rule="evenodd" transform="translate(1 1)">
    <g transform="translate(16 2)">
      <mask id="pie-b" fill="#fff">
        <use xlink:href="#pie-a"/>
      </mask>
      <use fill="#D8D8D8" xlink:href="#pie-a"/>
      <g fill="#FFA0A0" mask="url(#pie-b)">
        <rect width="24" height="24" transform="translate(-17 -3)"/>
      </g>
    </g>
    <mask id="pie-d" fill="#fff">
      <use xlink:href="#pie-c"/>
    </mask>
    <use fill="#000" fill-rule="nonzero" xlink:href="#pie-c"/>
    <g fill="#7600FF" mask="url(#pie-d)">
      <rect width="24" height="24" transform="translate(-1 -1)"/>
    </g>
  </g>
</svg>
