<svg xmlns="http://www.w3.org/2000/svg" xmlns:xlink="http://www.w3.org/1999/xlink" width="24" height="24" viewBox="0 0 24 24">
  <defs>
    <circle id="power-a" cx="5" cy="5" r="5"/>
    <path id="power-c" d="M5.19638164,2.36876081 C5.68070104,2.10333065 6.28849314,2.28077544 6.55392329,2.76509484 C6.81935345,3.24941423 6.64190866,3.85720633 6.15758926,4.12263649 C5.49702099,4.48465944 4.88726727,4.94115986 4.34314575,5.48528137 C1.21895142,8.60947571 1.21895142,13.6747955 4.34314575,16.7989899 C7.46734008,19.9231842 12.5326599,19.9231842 15.6568542,16.7989899 C18.7810486,13.6747955 18.7810486,8.60947571 15.6568542,5.48528137 C15.1432061,4.9716332 14.5710279,4.53601837 13.952659,4.18420429 C13.4726275,3.9110958 13.3048833,3.30055524 13.5779918,2.82052379 C13.8511003,2.34049234 14.4616409,2.17274814 14.9416723,2.44585664 C15.7152811,2.88599264 16.4305349,3.43053487 17.0710678,4.07106781 C20.9763107,7.97631073 20.9763107,14.3079605 17.0710678,18.2132034 C13.1658249,22.1184464 6.83417511,22.1184464 2.92893219,18.2132034 C-0.976310729,14.3079605 -0.976310729,7.97631073 2.92893219,4.07106781 C3.60753123,3.39246877 4.3698941,2.82171544 5.19638164,2.36876081 Z M9.85786438,0 C10.4101491,-1.01453063e-16 10.8578644,0.44771525 10.8578644,1 L10.8578644,8 C10.8578644,8.55228475 10.4101491,9 9.85786438,9 C9.30557963,9 8.85786438,8.55228475 8.85786438,8 L8.85786438,1 C8.85786438,0.44771525 9.30557963,1.01453063e-16 9.85786438,0 Z"/>
  </defs>
  <g fill="none" fill-rule="evenodd" transform="translate(2 1)">
    <g transform="translate(5 6)">
      <mask id="power-b" fill="#fff">
        <use xlink:href="#power-a"/>
      </mask>
      <use fill="#D8D8D8" xlink:href="#power-a"/>
      <g fill="#FFA0A0" mask="url(#power-b)">
        <rect width="24" height="24" transform="translate(-7 -7)"/>
      </g>
    </g>
    <mask id="power-d" fill="#fff">
      <use xlink:href="#power-c"/>
    </mask>
    <use fill="#000" fill-rule="nonzero" xlink:href="#power-c"/>
    <g fill="#7600FF" mask="url(#power-d)">
      <rect width="24" height="24" transform="translate(-2 -1)"/>
    </g>
  </g>
</svg>
