<svg xmlns="http://www.w3.org/2000/svg" xmlns:xlink="http://www.w3.org/1999/xlink" width="24" height="24" viewBox="0 0 24 24">
  <defs>
    <polygon id="ticket-a" points="0 6 2 8 4 8 6 8 6 10 5 12 8 14 14 8 6 .113"/>
    <path id="ticket-c" d="M2.49615544,9.16341733 L2.49615544,7.25848536 C2.49615544,6.20642048 3.34902253,5.35355339 4.40108741,5.35355339 L19.6405432,5.35355339 C20.692608,5.35355339 21.5454751,6.20642048 21.5454751,7.25848536 L21.5454751,9.16341733 C21.5454751,10.2154822 20.692608,11.0683493 19.6405432,11.0683493 C19.1145107,11.0683493 18.6880772,11.4947828 18.6880772,12.0208153 C18.6880772,12.5468477 19.1145107,12.9732813 19.6405432,12.9732813 C20.692608,12.9732813 21.5454751,13.8261484 21.5454751,14.8782132 L21.5454751,16.7831452 C21.5454751,17.8352101 20.692608,18.6880772 19.6405432,18.6880772 L4.40108741,18.6880772 C3.34902253,18.6880772 2.49615544,17.8352101 2.49615544,16.7831452 L2.49615544,14.8782132 C2.49615544,13.8261484 3.34902253,12.9732813 4.40108741,12.9732813 C4.92711984,12.9732813 5.35355339,12.5468477 5.35355339,12.0208153 C5.35355339,11.4947828 4.92711984,11.0683493 4.40108741,11.0683493 C3.34902253,11.0683493 2.49615544,10.2154822 2.49615544,9.16341733 Z M4.40108741,9.16341733 C5.97918472,9.16341733 7.25848536,10.442718 7.25848536,12.0208153 C7.25848536,13.5989126 5.97918472,14.8782132 4.40108741,14.8782132 L4.40108741,16.7831452 L19.6405432,16.7831452 L19.6405432,14.8782132 C18.0624458,14.8782132 16.7831452,13.5989126 16.7831452,12.0208153 C16.7831452,10.442718 18.0624458,9.16341733 19.6405432,9.16341733 L19.6405432,7.25848536 L4.40108741,7.25848536 L4.40108741,9.16341733 Z M11.0683493,9.18196763 C11.0683493,8.64569014 11.4947828,8.21095134 12.0208153,8.21095134 C12.5468477,8.21095134 12.9732813,8.64569014 12.9732813,9.18196763 L12.9732813,14.8596629 C12.9732813,15.3959404 12.5468477,15.8306792 12.0208153,15.8306792 C11.4947828,15.8306792 11.0683493,15.3959404 11.0683493,14.8596629 L11.0683493,9.18196763 Z"/>
  </defs>
  <g fill="none" fill-rule="evenodd">
    <g transform="translate(2 8)">
      <mask id="ticket-b" fill="#fff">
        <use xlink:href="#ticket-a"/>
      </mask>
      <use fill="#D8D8D8" xlink:href="#ticket-a"/>
      <g fill="#FFA0A0" mask="url(#ticket-b)">
        <rect width="24" height="24" transform="translate(-2 -8)"/>
      </g>
    </g>
    <mask id="ticket-d" fill="#fff">
      <use xlink:href="#ticket-c"/>
    </mask>
    <use fill="#000" fill-rule="nonzero" transform="rotate(-45 12.02 12.02)" xlink:href="#ticket-c"/>
    <g fill="#7600FF" mask="url(#ticket-d)">
      <rect width="24" height="24"/>
    </g>
  </g>
</svg>
