<svg xmlns="http://www.w3.org/2000/svg" xmlns:xlink="http://www.w3.org/1999/xlink" width="24" height="24" viewBox="0 0 24 24">
  <defs>
    <path id="wallet-a" d="M0,0 L16,0 L16,2 L0,2 L0,0 Z M0,13 L20,13 L20,16 L0,16 L0,13 Z M11,9 L20,9 L20,12 L11,12 L11,9 Z"/>
    <path id="wallet-c" d="M20,8 L20,6 L17,6 L2,6 L2,18 L20,18 L20,16 L12,16 C11.4477153,16 11,15.5522847 11,15 L11,9 C11,8.44771525 11.4477153,8 12,8 L20,8 Z M20,10 L13,10 L13,14 L20,14 L20,10 Z M16,4 L16,2 L2,2 L2,4 L16,4 Z M18,4 L20,4 C21.1045695,4 22,4.8954305 22,6 L22,18 C22,19.1045695 21.1045695,20 20,20 L2,20 C0.8954305,20 0,19.1045695 0,18 L0,2 C0,0.8954305 0.8954305,0 2,0 L16,0 C17.1045695,0 18,0.8954305 18,2 L18,4 Z M15,13 C14.4477153,13 14,12.5522847 14,12 C14,11.4477153 14.4477153,11 15,11 C15.5522847,11 16,11.4477153 16,12 C16,12.5522847 15.5522847,13 15,13 Z"/>
  </defs>
  <g fill="none" fill-rule="evenodd" transform="translate(1 2)">
    <g transform="translate(1 3)">
      <mask id="wallet-b" fill="#fff">
        <use xlink:href="#wallet-a"/>
      </mask>
      <use fill="#D8D8D8" xlink:href="#wallet-a"/>
      <g fill="#FFA0A0" mask="url(#wallet-b)">
        <rect width="24" height="24" transform="translate(-2 -5)"/>
      </g>
    </g>
    <mask id="wallet-d" fill="#fff">
      <use xlink:href="#wallet-c"/>
    </mask>
    <use fill="#000" fill-rule="nonzero" xlink:href="#wallet-c"/>
    <g fill="#7600FF" mask="url(#wallet-d)">
      <rect width="24" height="24" transform="translate(-1 -2)"/>
    </g>
  </g>
</svg>
