<svg width="585" height="376" viewBox="0 0 585 376" fill="none" xmlns="http://www.w3.org/2000/svg">
<path d="M292.337 346.676C444.616 346.676 568.062 342.664 568.062 337.716C568.062 332.767 444.616 328.756 292.337 328.756C140.058 328.756 16.6119 332.767 16.6119 337.716C16.6119 342.664 140.058 346.676 292.337 346.676Z" fill="#E6E6E6"/>
<path fill-rule="evenodd" clip-rule="evenodd" d="M333.963 33.6567H508.078C511.201 33.6567 514.197 35.0421 516.406 37.5081C518.614 39.9741 519.855 43.3188 519.855 46.8063V312.999C519.855 316.487 518.614 319.832 516.406 322.298C514.197 324.764 511.201 326.149 508.078 326.149H80.1796C78.6329 326.149 77.1014 325.809 75.6725 325.148C74.2435 324.487 72.9452 323.519 71.8516 322.298C70.7579 321.077 69.8904 319.627 69.2985 318.032C68.7066 316.436 68.402 314.726 68.402 312.999V46.8063C68.402 45.0795 68.7066 43.3696 69.2985 41.7742C69.8904 40.1788 70.7579 38.7292 71.8516 37.5081C72.9452 36.287 74.2435 35.3185 75.6725 34.6576C77.1014 33.9968 78.6329 33.6567 80.1796 33.6567H255.012V32.6387C255.012 32.2462 255.081 31.8576 255.216 31.495C255.351 31.1323 255.548 30.8028 255.796 30.5253C256.045 30.2478 256.34 30.0276 256.665 29.8774C256.99 29.7272 257.338 29.6499 257.689 29.6499H331.286C331.637 29.6499 331.985 29.7272 332.31 29.8774C332.635 30.0276 332.93 30.2478 333.179 30.5253C333.427 30.8028 333.624 31.1323 333.759 31.495C333.893 31.8576 333.963 32.2462 333.963 32.6387V33.6567ZM87.3617 56.1711C87.6167 55.8841 87.9645 55.7204 88.3288 55.7158H502.534C502.899 55.7204 503.246 55.8841 503.501 56.1711C503.756 56.458 503.898 56.8448 503.895 57.2467V314.843C503.898 315.245 503.756 315.632 503.501 315.919C503.246 316.206 502.899 316.37 502.534 316.374H88.3288C87.9645 316.37 87.6167 316.206 87.3617 315.919C87.1066 315.632 86.9652 315.245 86.9683 314.843V57.2467C86.9652 56.8448 87.1066 56.458 87.3617 56.1711Z" fill="#3F3D56"/>
<path d="M544.839 308.991H500.855V304.445C500.855 304.195 500.573 303.993 500.226 303.993H485.146C484.799 303.993 484.518 304.195 484.518 304.445V308.991H475.092V304.445C475.092 304.195 474.811 303.993 474.464 303.993H459.384C459.037 303.993 458.755 304.195 458.755 304.445V308.991H449.33V304.445C449.33 304.195 449.049 303.993 448.702 303.993H433.622C433.275 303.993 432.993 304.195 432.993 304.445V308.991H423.568V304.445C423.568 304.195 423.287 303.993 422.94 303.993H407.859C407.512 303.993 407.231 304.195 407.231 304.445V308.991H397.806V304.445C397.806 304.195 397.525 303.993 397.177 303.993H382.097C381.75 303.993 381.469 304.195 381.469 304.445V308.991H372.044V304.445C372.044 304.195 371.762 303.993 371.415 303.993H356.335C355.988 303.993 355.707 304.195 355.707 304.445V308.991H346.281V304.445C346.281 304.195 346 303.993 345.653 303.993H227.524C227.177 303.993 226.895 304.195 226.895 304.445V308.991H217.47V304.445C217.47 304.195 217.189 303.993 216.842 303.993H201.762C201.415 303.993 201.133 304.195 201.133 304.445V308.991H191.708V304.445C191.708 304.195 191.427 303.993 191.08 303.993H175.999C175.652 303.993 175.371 304.195 175.371 304.445V308.991H165.946V304.445C165.946 304.195 165.665 303.993 165.318 303.993H150.237C149.89 303.993 149.609 304.195 149.609 304.445V308.991H140.184V304.445C140.184 304.195 139.902 303.993 139.555 303.993H124.475C124.128 303.993 123.847 304.195 123.847 304.445V308.991H114.421V304.445C114.421 304.195 114.14 303.993 113.793 303.993H98.7128C98.3657 303.993 98.0844 304.195 98.0844 304.445V308.991H88.6592V304.445C88.6592 304.195 88.3779 303.993 88.0309 303.993H72.9506C72.6035 303.993 72.3222 304.195 72.3222 304.445V308.991H43.4183C35.0896 308.991 28.338 313.849 28.338 319.842V324.748C28.338 330.74 35.0896 335.598 43.4183 335.598H544.839C553.168 335.598 559.919 330.74 559.919 324.748V319.842C559.919 313.849 553.168 308.991 544.839 308.991Z" fill="#3F3D56"/>
</svg>
