<svg width="778" height="312" viewBox="0 0 778 312" fill="none" xmlns="http://www.w3.org/2000/svg">
<path d="M132.552 145.472L125.908 119.372C114.127 114.4 102.073 110.093 89.8054 106.472L88.9665 118.602L85.5647 105.239C70.3503 100.912 60 99.0056 60 99.0056C60 99.0056 73.9809 151.956 103.305 192.438L137.474 198.416L110.929 202.228C114.619 206.649 118.585 210.835 122.803 214.76C165.461 254.196 212.974 272.29 228.926 255.173C244.879 238.056 223.229 192.211 180.571 152.775C167.347 140.549 150.734 130.739 134.105 123.017L132.552 145.472Z" fill="#E6E6E6"/>
<path d="M195.742 117.128L203.6 91.3651C196.096 81.0433 188.013 71.1512 179.39 61.736L172.377 71.6877L176.4 58.4968C165.622 46.9601 157.751 40 157.751 40C157.751 40 142.238 92.5259 146.331 142.276L172.478 164.984L147.777 154.582C148.641 160.266 149.863 165.891 151.437 171.423C167.487 227.143 198.77 267.093 221.309 260.653C243.849 254.212 249.109 203.821 233.059 148.101C228.083 130.827 218.954 113.876 208.726 98.7053L195.742 117.128Z" fill="#E6E6E6"/>
<path d="M676.22 222.507L681.164 217.189C680.565 213.811 679.776 210.469 678.799 207.18L675.926 208.768L678.457 206.045C677.209 201.99 676.125 199.383 676.125 199.383C676.125 199.383 666.168 210.285 661.286 222.81L664.937 231.371L660.184 225.959C659.722 227.437 659.354 228.942 659.082 230.466C656.391 245.837 659.25 259.174 665.468 260.254C671.686 261.333 678.908 249.748 681.599 234.376C682.339 229.466 682.318 224.471 681.538 219.566L676.22 222.507Z" fill="#E6E6E6"/>
<path d="M705.075 233.024L712.067 231.017C713.308 227.817 714.366 224.55 715.238 221.231L711.954 221.112L715.534 220.084C716.571 215.97 716.995 213.18 716.995 213.18C716.995 213.18 702.814 217.387 692.134 225.596L690.816 234.804L689.556 227.724C688.394 228.751 687.297 229.85 686.274 231.015C675.992 242.788 671.518 255.676 676.28 259.802C681.043 263.927 693.238 257.728 703.52 245.954C706.702 242.131 709.276 237.845 711.154 233.245L705.075 233.024Z" fill="#E6E6E6"/>
<path fill-rule="evenodd" clip-rule="evenodd" d="M719.76 261.909H58V256H719.76V261.909Z" fill="#3F3D56"/>
</svg>
